<svg xmlns="http://www.w3.org/2000/svg" viewBox="0 0 20 20"><path d="M17.6 5.6c-.2.2-.4.3-.5.4l-3.2-3c.1-.2.3-.4.4-.5.3-.3.3-.9 0-1.2-.3-.3-.9-.3-1.2 0-1.4 1.4-1.4 3-1.2 4.5-1.7-.4-3.7-.5-5.2 1-.6.7-1 1.5-1.1 2.5 0 .1.1.3.2.3s.3-.1.3-.2c.1-.9.5-1.6 1.1-2.2 1.4-1.4 3.2-1.2 4.9-.8.1.3.1.5.1.7-1.7-.4-3.4-.7-4.6.6-2.8 2.8 2 7.6-1.2 10.7-.1.1-.3.1-.4 0-.1-.1-.1-.3 0-.4 2-2 .2-4.8.1-7.6 0-.1-.1-.3-.3-.3-.1 0-.3.1-.3.3 0 .6.1 1.1.2 1.7-1.5-.2-3.2-.2-4.5 1.2-.3.3-.3.9 0 1.2.3.3.9.3 1.2 0 .2-.2.4-.3.5-.4L6.1 17c-.1.2-.3.4-.4.5-.3.3-.3.9 0 1.2.3.3.9.3 1.2 0 1.4-1.4 1.4-3 1.2-4.5 2 .4 3.8.4 5.2-1 1.5-1.5 1.4-3.5 1-5.2.5.1 1 .1 1.5.1.1 0 .2-.1.2-.3 0-.1-.1-.3-.3-.3-.5 0-1 0-1.6-.1-.1-.2-.1-.4-.2-.7 1.5.3 2.9.4 4-.7.1-.1.3-.1.4 0 .1.1.1.3 0 .4-.5.5-1.1.8-1.7 1-.1 0-.2.2-.2.3 0 .1.2.2.3.2.7-.2 1.4-.6 1.9-1.1.3-.1.4-.3.4-.6 0-.7-.9-1.1-1.4-.6zM2.1 14c-.1.1-.3.1-.5 0-.1-.1-.1-.3 0-.4.9-.9 1.9-1.1 2.9-1.1.5 0 1 .1 1.4.1.1.2.1.4.2.7-1.5-.3-2.9-.4-4 .7zm1.4-.3c.7-.2 1.6-.1 2.7.1.2 1.1.3 2 .1 2.7l-2.8-2.8zm4.1-1.3c-.2-.9-.4-1.7-.4-2.4l2.8 2.8c-.7 0-1.5-.2-2.4-.4zm3.1.3L7.3 9.3c.1-.4.2-.8.5-1.1l4 4c-.3.3-.7.4-1.1.5zm1.5-.9l-4-4c.3-.3.7-.4 1.1-.5l3.4 3.4c-.1.4-.2.8-.5 1.1zm.2-4.2c.2.9.4 1.7.4 2.4L10 7.2c.7 0 1.5.2 2.4.4zm.4 5.2c-1.4 1.4-3.2 1.2-4.9.8 0-.2-.1-.4-.1-.7 1.7.4 3.4.7 4.6-.6 2.8-2.8-1.9-7.6 1.2-10.7.1-.1.3-.1.4 0 .1.1.1.3 0 .4-2.8 2.9 2 7.7-1.2 10.8zm1-6.6c-.2-1.1-.3-2-.1-2.7l2.8 2.8c-.7.2-1.6.1-2.7-.1z" fill="#2d589a"/></svg>