<svg version="1.1" id="Capa_1" xmlns="http://www.w3.org/2000/svg" x="0" y="0" viewBox="0 0 20 20" xml:space="preserve"><style>.st0{fill:#2d589a}</style><path class="st0" d="M18.3 4.4c.1-.1.2-.3.1-.5 0-.2-.2-.3-.3-.4l-3.4-1.1c-.2-.1-.4 0-.5.1-.1.1-.2.3-.1.5l1.1 3.4c.1.2.2.3.4.3s.4 0 .5-.1l.7-.7C17.5 7.1 18 8.5 18 10c0 4.4-3.6 7.9-7.9 7.9-.3 0-.5.2-.5.5s.1.6.4.6c4.9 0 9-4.1 9-9 0-1.7-.5-3.4-1.5-4.9l.8-.7zM1.5 15.5c-.1.1-.2.3-.1.5 0 .2.2.3.3.4l3.4 1.1c.2.1.4 0 .5-.1.1-.1.2-.4.1-.5l-1.1-3.4c-.1-.2-.2-.3-.4-.3s-.4 0-.5.1l-.6.6C2.4 12.7 2 11.4 2 10c0-4.4 3.6-7.9 7.9-7.9.3 0 .5-.2.5-.5S10.3 1 10 1c-4.9 0-9 4.1-9 9 0 1.7.5 3.3 1.4 4.7l-.9.8z"/><path class="st0" d="M11.1 3.1c-.9 0-1.7.5-2.2 1.2.3-.1.7-.1 1.1-.1 1.4 0 2.7.5 3.7 1.3-.2-1.4-1.3-2.4-2.6-2.4z"/><circle class="st0" cx="13.2" cy="13.2" r="1.6"/><circle class="st0" cx="6.3" cy="12.6" r="1.1"/><circle class="st0" cx="6.3" cy="6.3" r="1.1"/><path class="st0" d="M10 5.2c-.6 0-1.2.1-1.7.3.1.3.1.5.1.8 0 1.2-.9 2.1-2.1 2.1-.3 0-.5-.1-.7-.1-.2.5-.3 1.1-.3 1.7 0 .3 0 .5.1.8.3-.2.6-.3 1-.3 1.2 0 2.1.9 2.1 2.1 0 .6-.3 1.1-.7 1.5.7.4 1.4.6 2.2.6.3 0 .7 0 1-.1-.3-.4-.5-.9-.5-1.5 0-1.5 1.2-2.6 2.6-2.6.5 0 1.1.2 1.5.5.1-.3.1-.6.1-1 0-2.6-2.1-4.8-4.7-4.8z"/></svg>