<svg xmlns="http://www.w3.org/2000/svg" xmlns:xlink="http://www.w3.org/1999/xlink">
    <symbol id="ALARM-CLOCK" viewBox="0 0 20 20">
      <path fill="currentColor" d="M3.72 6.12c.81-1.2 1.96-2.17 3.3-2.74-.27-.56-.84-.87-1.45-.89-1.2-.04-2.34.82-2.9 1.83-.51.91-.62 2.3.45 2.86.17-.36.37-.72.6-1.06z"/><path fill="currentColor" d="M17.69 5.45c-.12-1.16-1-2.2-2.03-2.69-.91-.42-2.19-.42-2.68.61.38.16.74.35 1.08.57 1.22.78 2.21 1.91 2.81 3.23.13-.07.26-.16.36-.27.39-.37.51-.92.46-1.45z"/><path fill="currentColor" d="M17.23 6.92c-.11.11.8-.8 0 0z"/><path fill="currentColor" d="M14.56 16.33a7.5 7.5 0 01-1.33.81c.1.17.19.34.29.51.24.41.45.84.71 1.23.17.26.47.01.66-.1.2-.11.4-.23.6-.34.19-.11.11-.3.03-.44-.31-.56-.64-1.12-.96-1.67z"/><path fill="currentColor" d="M4.78 17.46c-.1.18-.21.36-.31.54-.09.15-.15.32.04.44.17.11.35.2.53.3.1.06.2.11.3.17.04.04.11.09.19.09.18.01.25-.17.32-.3.11-.2.23-.4.35-.6.18-.32.37-.64.55-.96-.47-.22-.91-.49-1.33-.81-.21.38-.43.75-.64 1.13z"/><path fill="currentColor" d="M17.13 10.23c.01.03 0-.02 0 0z"/><path fill="currentColor" d="M14.73 4.97a7.191 7.191 0 00-2.55-1.45c-.43-.14-.87-.23-1.32-.29l-.33-.03c-.05 0-.11.01-.13-.03-.01-.02 0-.08 0-.11v-.22-.94c0-.08-.02-.09.06-.09h.46c.12 0 .24.01.36-.01.24-.04.4-.29.33-.53-.1-.27-.37-.27-.62-.27H9.1c-.2 0-.44-.03-.6.11-.18.17-.17.47.02.62.12.1.26.09.41.09h.49c.03 0 .13-.02.16 0 .02.01 0 0 .01.03.03.09 0 .24 0 .34v.93c0 .01.01.06 0 .07-.03.03-.23.02-.28.02-.44.04-.88.12-1.3.25-1.99.56-3.67 2.03-4.52 3.91-.86 1.9-.84 4.16.07 6.04.85 1.77 2.45 3.16 4.33 3.73 1.77.54 3.73.37 5.37-.48 1.86-.96 3.24-2.73 3.69-4.77.12-.55.18-1.11.17-1.67 0-1.99-.89-3.92-2.39-5.25zm1.42 6.53a6.242 6.242 0 01-1.79 3.31c-.92.9-2.11 1.5-3.39 1.7-.32.05-.65.08-.98.08a6.28 6.28 0 01-3.65-1.18 6.362 6.362 0 01-2.26-3 6.244 6.244 0 01-.15-3.68 6.346 6.346 0 012-3.17 6.255 6.255 0 017.15-.69c1.17.67 2.12 1.72 2.66 2.95.5 1.15.64 2.44.41 3.68z"/><path fill="currentColor" d="M14.73 13.05z"/><path fill="currentColor" d="M14.91 7.14a5.901 5.901 0 00-3.12-2.39c-1.33-.43-2.8-.36-4.08.18a5.913 5.913 0 00-2.89 2.65 5.781 5.781 0 00-.59 3.74c.18 1.05.66 2.04 1.36 2.84.7.8 1.61 1.4 2.61 1.73 1.04.34 2.18.37 3.25.1 1.03-.26 1.98-.81 2.72-1.57.74-.75 1.28-1.71 1.52-2.74a5.99 5.99 0 00-.31-3.69c-.13-.29-.29-.58-.47-.85zM9.85 5.8v-.28V5c0-.16.23-.19.28-.04.01.05.01.1.01.15v.6c0 .05.01.11 0 .17-.01.12-.16.2-.25.09-.05-.05-.04-.11-.04-.17zm-2.59-.21c-.01.01-.03.02 0 0 .04-.02.02-.01 0 0 .17-.1.26.17.32.27.1.16.19.33.29.49.04.07.07.13.03.2-.07.11-.2.07-.26-.02-.1-.14-.18-.3-.26-.45-.06-.11-.29-.39-.12-.49zM5.25 7.63c.03-.11.14-.13.22-.09.16.08.3.18.45.26.11.06.45.19.35.37.01-.02.02-.04 0 0-.01.02-.01.01 0 0-.1.17-.33-.03-.43-.09-.16-.09-.33-.18-.49-.28-.06-.04-.12-.09-.1-.17zm-.72 2.69c0-.19.28-.14.4-.14h.58c.07 0 .15.01.18.09.05.11-.05.19-.15.2-.17.01-.35 0-.53 0-.12-.01-.48.05-.48-.15zm1.69 2.34c-.12.07-.25.14-.37.22-.13.07-.26.17-.39.23-.14.06-.29-.1-.18-.22.03-.04.09-.06.13-.08.17-.1.34-.2.52-.3.05-.03.1-.07.15-.09.16-.08.31.15.14.24zm1.68 1.57c-.07.12-.14.25-.22.37-.07.13-.13.28-.22.4s-.3.06-.26-.1c.01-.05.05-.09.07-.13.1-.17.2-.34.3-.52.03-.05.05-.11.09-.15.1-.15.33-.03.24.13zm2.24.61v.8c0 .16-.23.19-.28.04-.01-.05-.01-.1-.01-.15v-.6c0-.05-.01-.11 0-.17.01-.13.16-.2.25-.09.05.04.04.11.04.17zm.45-3.78a.934.934 0 01-.83.18c-.03-.01-.09-.04-.11-.03-.01 0-.03.03-.04.04-.07.06-.14.13-.21.2-.23.22-.45.44-.68.66-.18.17-.35.34-.53.51-.09.08-.18.14-.3.15a.41.41 0 01-.42-.46c.02-.2.23-.35.37-.48.23-.22.45-.44.68-.66.17-.17.37-.33.53-.51.01-.01.03-.02.04-.04 0-.01-.02-.06-.02-.08-.02-.08-.03-.17-.03-.25 0-.13.03-.26.09-.38.02-.04.05-.07.04-.11-.02-.03-.09-.07-.12-.1-.08-.07-.15-.15-.23-.22-.22-.2-.43-.41-.65-.62-.4-.38-.8-.76-1.19-1.14-.04-.02-.07-.05-.1-.08-.13-.14-.03-.39.18-.35.12.02.24.18.32.26l1.3 1.24c.19.18.38.37.58.55.05.05.1.11.16.15.01.01.02.03.04.03.03.01.17-.09.2-.1.45-.17.97.03 1.19.46.2.4.09.9-.26 1.18zm2.14 3.99c.01-.01.05-.03 0 0-.01 0-.01 0 0 0-.17.1-.27-.19-.33-.29-.09-.16-.19-.32-.28-.49-.04-.07-.07-.14 0-.21.08-.08.18-.04.24.04.1.14.18.3.26.45.05.12.28.4.11.5zm.05-9.27c-.07.12-.14.25-.22.37-.07.13-.14.27-.23.39s-.3.06-.26-.1c.01-.05.05-.09.07-.13.1-.17.2-.34.3-.52.03-.05.05-.11.09-.15.11-.15.34-.02.25.14zm.99 2.2c.25-.14.5-.32.77-.44.12-.06.27.07.19.2-.03.05-.09.07-.13.1l-.51.3c-.05.03-.11.07-.17.1-.17.05-.32-.17-.15-.26zm.96 5.07c-.01.02-.01.01 0 0-.1.17-.33-.02-.43-.09-.16-.09-.33-.19-.49-.28-.07-.04-.13-.09-.11-.18.03-.11.14-.13.22-.08.16.08.3.18.45.26.12.07.46.19.36.37.01-.02.02-.04 0 0zm.59-2.59c-.29 0-.59.03-.88 0-.14-.01-.2-.21-.06-.27.05-.02.11-.01.16-.01h.6c.06 0 .12-.01.18 0 .17.01.19.28 0 .28z"/><path fill="currentColor" d="M14.91 7.14c.6.91-.47-.73 0 0z"/><path fill="currentColor" d="M7.26 5.59z"/><path fill="currentColor" d="M10.03 9.77a.56.56 0 00-.58.63c.04.27.28.48.56.47.29-.01.53-.26.53-.55 0-.29-.23-.53-.51-.55z"/>
    </symbol>
    <symbol id="METABOLISM" viewBox="0 0 20 20">
      <path fill="currentColor" d="M18.3 4.4c.1-.1.2-.3.1-.5 0-.2-.2-.3-.3-.4l-3.4-1.1c-.2-.1-.4 0-.5.1-.1.1-.2.3-.1.5l1.1 3.4c.1.2.2.3.4.3s.4 0 .5-.1l.7-.7C17.5 7.1 18 8.5 18 10c0 4.4-3.6 7.9-7.9 7.9-.3 0-.5.2-.5.5s.1.6.4.6c4.9 0 9-4.1 9-9 0-1.7-.5-3.4-1.5-4.9l.8-.7zM1.5 15.5c-.1.1-.2.3-.1.5 0 .2.2.3.3.4l3.4 1.1c.2.1.4 0 .5-.1.1-.1.2-.4.1-.5l-1.1-3.4c-.1-.2-.2-.3-.4-.3s-.4 0-.5.1l-.6.6C2.4 12.7 2 11.4 2 10c0-4.4 3.6-7.9 7.9-7.9.3 0 .5-.2.5-.5S10.3 1 10 1c-4.9 0-9 4.1-9 9 0 1.7.5 3.3 1.4 4.7l-.9.8z"/><path fill="currentColor" d="M11.1 3.1c-.9 0-1.7.5-2.2 1.2.3-.1.7-.1 1.1-.1 1.4 0 2.7.5 3.7 1.3-.2-1.4-1.3-2.4-2.6-2.4z"/><circle fill="currentColor" cx="13.2" cy="13.2" r="1.6"/><circle fill="currentColor" cx="6.3" cy="12.6" r="1.1"/><circle fill="currentColor" cx="6.3" cy="6.3" r="1.1"/><path fill="currentColor" d="M10 5.2c-.6 0-1.2.1-1.7.3.1.3.1.5.1.8 0 1.2-.9 2.1-2.1 2.1-.3 0-.5-.1-.7-.1-.2.5-.3 1.1-.3 1.7 0 .3 0 .5.1.8.3-.2.6-.3 1-.3 1.2 0 2.1.9 2.1 2.1 0 .6-.3 1.1-.7 1.5.7.4 1.4.6 2.2.6.3 0 .7 0 1-.1-.3-.4-.5-.9-.5-1.5 0-1.5 1.2-2.6 2.6-2.6.5 0 1.1.2 1.5.5.1-.3.1-.6.1-1 0-2.6-2.1-4.8-4.7-4.8z"/>
    </symbol>
    <symbol id="TRACKING" viewBox="0 0 20 20">
      <path fill="currentColor" d="M10 1c-.2 0-.3.1-.3.3v1.2c0 .2.1.3.3.3s.3-.1.3-.3v-.9c4.6.2 8.2 3.9 8.1 8.5s-3.7 8.2-8.3 8.3-8.3-3.5-8.5-8.1h.9c.2 0 .3-.1.3-.3s-.1-.3-.3-.3H1.3c-.2 0-.3.1-.3.3 0 5 4 9 9 9s9-4 9-9-4-9-9-9z"/><path fill="currentColor" d="M14 5.5c-.8-.1-1.6.5-1.6 1.4-.1.8.5 1.6 1.4 1.6h.1c.8 0 1.4-.6 1.5-1.4.1-.8-.6-1.5-1.4-1.6zm-.2 2.4c-.5 0-.8-.5-.8-.9 0-.5.4-.9.9-.9h.1c.5 0 .9.5.8 1 0 .5-.5.8-1 .8zM10.7 6.6c-.4-.3-.9-.3-1.3 0l-2 2c-.3.3-.3.8 0 1.1.3.3.8.3 1.1 0l1.6-1.6 1.2 1.2c.3.3.8.3 1 0 .1-.1.2-.3.2-.5s-.1-.4-.2-.5l-1.6-1.7zm1.2 2.3c-.1.1-.1.1-.2 0l-1.4-1.4c-.1-.1-.3-.1-.4 0L8 9.3h-.2c-.1 0-.1-.2 0-.2l2-2c.1-.1.3-.1.4 0l1.6 1.6v.1c.1 0 .1 0 .1.1zM10.4 15.8c.2 0 .4-.1.5-.2l1.6-1.6c.4-.4.4-.9 0-1.3l-2-2c-.3-.3-.8-.3-1.1 0-.3.3-.3.8 0 1.1l1.6 1.6-1.2 1.2c-.3.3-.3.8 0 1.1.2 0 .4.1.6.1zm-.1-.9l1.4-1.4c.1-.1.1-.3 0-.4l-1.8-1.8s-.1-.1 0-.1c0-.1.1-.1.1-.1h.1l2 2c.1.1.1.3 0 .4l-1.6 1.6h-.1-.1c-.1 0-.1-.1 0-.2zM15.2 12.1c.4 0 .8-.3.8-.8 0-.4-.3-.8-.8-.8h-1.6v-.8c0-.1-.1-.2-.2-.3-.1-.1-.2 0-.3 0l-.9.6c-.1.1-.1.1-.1.2v.9c0 .5.4.9.9.9h2.2zm-2.5-.9v-.7l.3-.2v.6c0 .2.1.3.3.3h1.9c.1 0 .1.1.1.2s-.1.1-.1.1H13c-.2 0-.3-.1-.3-.3z"/><path fill="currentColor" d="M9.8 12.5l-.6-.6v-.1c-.1-.1-.3-.1-.4 0l-3.3 3.3c-.3.3-.3.8 0 1.1.3.3.8.3 1.1 0L9.8 13c.1-.2.1-.4 0-.5zm-3.7 3.3c-.1.1-.2.1-.2 0-.1-.1-.1-.2 0-.2l3-3c.1 0 .1.1.2.1l-3 3.1zM8.7 2.9c.2 0 .3-.2.3-.3l-.2-1.2c0-.2-.2-.3-.3-.2-.2 0-.3.2-.2.3l.2 1.2c-.1.1.1.2.2.2zM7.2 3.1c0 .1.2.2.3.2h.1c.1-.1.2-.3.1-.5l-.4-1.1c-.1-.1-.2-.2-.4-.2-.1.1-.2.3-.2.4l.5 1.2zM6 3.7s.1.1.3.1c.1 0 .2-.1.3-.2.1-.1.1-.2 0-.3l-.6-1c-.2-.1-.4-.2-.5-.1s-.2.3-.1.4L6 3.7zM4.9 4.4c.1.1.3.1.4 0 .1-.1.1-.3 0-.4l-.7-.9c-.1-.1-.3-.1-.4 0-.1.1-.1.3 0 .4l.7.9zM4.1 5.4c.1.1.3.1.4 0 .1-.1.1-.3 0-.4l-1-.8c-.1-.1-.3-.1-.4 0-.1.1-.1.3 0 .4l1 .8zM2.3 5.9l1 .6c.1.1.2.1.3 0 .1-.1.2-.2.2-.3 0-.1-.1-.2-.1-.2l-1-.6c-.1-.1-.3 0-.4.1s-.1.3 0 .4zM1.7 7.3l1.1.4h.1c.1 0 .3-.1.3-.2s-.1-.3-.2-.3l-1.1-.5c-.2-.1-.3 0-.4.2 0 .2.1.3.2.4zM1.4 8.8l1.2.2h.1c.2 0 .3-.1.3-.3 0-.2-.1-.3-.2-.3l-1.3-.2c-.2 0-.3.1-.3.2-.1.2 0 .4.2.4z"/>
    </symbol>
    <symbol id="DNA" viewBox="0 0 20 20">
      <path d="M17.6 5.6c-.2.2-.4.3-.5.4l-3.2-3c.1-.2.3-.4.4-.5.3-.3.3-.9 0-1.2-.3-.3-.9-.3-1.2 0-1.4 1.4-1.4 3-1.2 4.5-1.7-.4-3.7-.5-5.2 1-.6.7-1 1.5-1.1 2.5 0 .1.1.3.2.3s.3-.1.3-.2c.1-.9.5-1.6 1.1-2.2 1.4-1.4 3.2-1.2 4.9-.8.1.3.1.5.1.7-1.7-.4-3.4-.7-4.6.6-2.8 2.8 2 7.6-1.2 10.7-.1.1-.3.1-.4 0-.1-.1-.1-.3 0-.4 2-2 .2-4.8.1-7.6 0-.1-.1-.3-.3-.3-.1 0-.3.1-.3.3 0 .6.1 1.1.2 1.7-1.5-.2-3.2-.2-4.5 1.2-.3.3-.3.9 0 1.2.3.3.9.3 1.2 0 .2-.2.4-.3.5-.4L6.1 17c-.1.2-.3.4-.4.5-.3.3-.3.9 0 1.2.3.3.9.3 1.2 0 1.4-1.4 1.4-3 1.2-4.5 2 .4 3.8.4 5.2-1 1.5-1.5 1.4-3.5 1-5.2.5.1 1 .1 1.5.1.1 0 .2-.1.2-.3 0-.1-.1-.3-.3-.3-.5 0-1 0-1.6-.1-.1-.2-.1-.4-.2-.7 1.5.3 2.9.4 4-.7.1-.1.3-.1.4 0 .1.1.1.3 0 .4-.5.5-1.1.8-1.7 1-.1 0-.2.2-.2.3 0 .1.2.2.3.2.7-.2 1.4-.6 1.9-1.1.3-.1.4-.3.4-.6 0-.7-.9-1.1-1.4-.6zM2.1 14c-.1.1-.3.1-.5 0-.1-.1-.1-.3 0-.4.9-.9 1.9-1.1 2.9-1.1.5 0 1 .1 1.4.1.1.2.1.4.2.7-1.5-.3-2.9-.4-4 .7zm1.4-.3c.7-.2 1.6-.1 2.7.1.2 1.1.3 2 .1 2.7l-2.8-2.8zm4.1-1.3c-.2-.9-.4-1.7-.4-2.4l2.8 2.8c-.7 0-1.5-.2-2.4-.4zm3.1.3L7.3 9.3c.1-.4.2-.8.5-1.1l4 4c-.3.3-.7.4-1.1.5zm1.5-.9l-4-4c.3-.3.7-.4 1.1-.5l3.4 3.4c-.1.4-.2.8-.5 1.1zm.2-4.2c.2.9.4 1.7.4 2.4L10 7.2c.7 0 1.5.2 2.4.4zm.4 5.2c-1.4 1.4-3.2 1.2-4.9.8 0-.2-.1-.4-.1-.7 1.7.4 3.4.7 4.6-.6 2.8-2.8-1.9-7.6 1.2-10.7.1-.1.3-.1.4 0 .1.1.1.3 0 .4-2.8 2.9 2 7.7-1.2 10.8zm1-6.6c-.2-1.1-.3-2-.1-2.7l2.8 2.8c-.7.2-1.6.1-2.7-.1z" fill="currentColor"/>
    </symbol>
    <symbol id="SHIPPING" viewBox="0 0 20 20">
      <path d="M18.4 11.9v-.2l-2-6.6H12V3.5H1.5v8.4H1v2.2h.5v.3h.3c.2 1.1 1.2 2 2.4 2s2.2-.9 2.4-2H12c.2 1.1 1.2 2 2.4 2s2.2-.9 2.4-2h1.7v-.3h.5v-2.2h-.6zM4.2 15.3c-.7 0-1.3-.6-1.3-1.3 0-.7.6-1.3 1.3-1.3.7 0 1.3.6 1.3 1.3 0 .7-.6 1.3-1.3 1.3zm10.2 0c-.7 0-1.3-.6-1.3-1.3 0-.7.6-1.3 1.3-1.3.7 0 1.3.6 1.3 1.3 0 .7-.6 1.3-1.3 1.3zm-1.2-6.1V6.3h2.4l.9 2.9h-3.3z" fill="currentColor"/>
    </symbol>
    <symbol id="CART" viewBox="0 0 20 20">
      <path d="M6.4 15.4c-1 0-1.8.8-1.8 1.8S5.4 19 6.4 19s1.8-.8 1.8-1.8-.8-1.8-1.8-1.8zM1 1v1.8h1.8L6 9.6l-1.3 2.2c-.1.3-.2.6-.2.9 0 1 .8 1.8 1.8 1.8h10.8v-1.8H6.8c-.1 0-.2-.1-.2-.2v-.1l.8-1.5H14c.7 0 1.3-.4 1.5-.9l3.2-5.8c.3-.2.3-.3.3-.5 0-.5-.4-.9-.9-.9H4.8L4 1H1zm14.4 14.4c-1 0-1.8.8-1.8 1.8s.8 1.8 1.8 1.8 1.8-.8 1.8-1.8-.8-1.8-1.8-1.8z" fill="currentColor"/>
    </symbol>
    <symbol id="TICK" viewBox="0 0 20 20">
      <path fill="currentColor" d="M19 5.7l-8.5 8.6-2.6 2.6h-.1l-2.6-2.6L1 10l2.6-2.6 4.3 4.3 8.5-8.6L19 5.7z"/>
    </symbol>
    <symbol id="CHEVRON" viewBox="0 0 20 20">
      <path fill="currentColor" d="M10 10L4 4l3-3 9 9-9 9-3-3 6-6z"/>
    </symbol>
</svg>
