<svg version="1.1" id="Layer_1" xmlns="http://www.w3.org/2000/svg" x="0" y="0" viewBox="0 0 20 20" xml:space="preserve"><style>.st0{fill:#2d589a}</style><path class="st0" d="M10 1c-.2 0-.3.1-.3.3v1.2c0 .2.1.3.3.3s.3-.1.3-.3v-.9c4.6.2 8.2 3.9 8.1 8.5s-3.7 8.2-8.3 8.3-8.3-3.5-8.5-8.1h.9c.2 0 .3-.1.3-.3s-.1-.3-.3-.3H1.3c-.2 0-.3.1-.3.3 0 5 4 9 9 9s9-4 9-9-4-9-9-9z"/><path class="st0" d="M14 5.5c-.8-.1-1.6.5-1.6 1.4-.1.8.5 1.6 1.4 1.6h.1c.8 0 1.4-.6 1.5-1.4.1-.8-.6-1.5-1.4-1.6zm-.2 2.4c-.5 0-.8-.5-.8-.9 0-.5.4-.9.9-.9h.1c.5 0 .9.5.8 1 0 .5-.5.8-1 .8zM10.7 6.6c-.4-.3-.9-.3-1.3 0l-2 2c-.3.3-.3.8 0 1.1.3.3.8.3 1.1 0l1.6-1.6 1.2 1.2c.3.3.8.3 1 0 .1-.1.2-.3.2-.5s-.1-.4-.2-.5l-1.6-1.7zm1.2 2.3c-.1.1-.1.1-.2 0l-1.4-1.4c-.1-.1-.3-.1-.4 0L8 9.3h-.2c-.1 0-.1-.2 0-.2l2-2c.1-.1.3-.1.4 0l1.6 1.6v.1c.1 0 .1 0 .1.1zM10.4 15.8c.2 0 .4-.1.5-.2l1.6-1.6c.4-.4.4-.9 0-1.3l-2-2c-.3-.3-.8-.3-1.1 0-.3.3-.3.8 0 1.1l1.6 1.6-1.2 1.2c-.3.3-.3.8 0 1.1.2 0 .4.1.6.1zm-.1-.9l1.4-1.4c.1-.1.1-.3 0-.4l-1.8-1.8s-.1-.1 0-.1c0-.1.1-.1.1-.1h.1l2 2c.1.1.1.3 0 .4l-1.6 1.6h-.1-.1c-.1 0-.1-.1 0-.2zM15.2 12.1c.4 0 .8-.3.8-.8 0-.4-.3-.8-.8-.8h-1.6v-.8c0-.1-.1-.2-.2-.3-.1-.1-.2 0-.3 0l-.9.6c-.1.1-.1.1-.1.2v.9c0 .5.4.9.9.9h2.2zm-2.5-.9v-.7l.3-.2v.6c0 .2.1.3.3.3h1.9c.1 0 .1.1.1.2s-.1.1-.1.1H13c-.2 0-.3-.1-.3-.3z"/><path class="st0" d="M9.8 12.5l-.6-.6v-.1c-.1-.1-.3-.1-.4 0l-3.3 3.3c-.3.3-.3.8 0 1.1.3.3.8.3 1.1 0L9.8 13c.1-.2.1-.4 0-.5zm-3.7 3.3c-.1.1-.2.1-.2 0-.1-.1-.1-.2 0-.2l3-3c.1 0 .1.1.2.1l-3 3.1zM8.7 2.9c.2 0 .3-.2.3-.3l-.2-1.2c0-.2-.2-.3-.3-.2-.2 0-.3.2-.2.3l.2 1.2c-.1.1.1.2.2.2zM7.2 3.1c0 .1.2.2.3.2h.1c.1-.1.2-.3.1-.5l-.4-1.1c-.1-.1-.2-.2-.4-.2-.1.1-.2.3-.2.4l.5 1.2zM6 3.7s.1.1.3.1c.1 0 .2-.1.3-.2.1-.1.1-.2 0-.3l-.6-1c-.2-.1-.4-.2-.5-.1s-.2.3-.1.4L6 3.7zM4.9 4.4c.1.1.3.1.4 0 .1-.1.1-.3 0-.4l-.7-.9c-.1-.1-.3-.1-.4 0-.1.1-.1.3 0 .4l.7.9zM4.1 5.4c.1.1.3.1.4 0 .1-.1.1-.3 0-.4l-1-.8c-.1-.1-.3-.1-.4 0-.1.1-.1.3 0 .4l1 .8zM2.3 5.9l1 .6c.1.1.2.1.3 0 .1-.1.2-.2.2-.3 0-.1-.1-.2-.1-.2l-1-.6c-.1-.1-.3 0-.4.1s-.1.3 0 .4zM1.7 7.3l1.1.4h.1c.1 0 .3-.1.3-.2s-.1-.3-.2-.3l-1.1-.5c-.2-.1-.3 0-.4.2 0 .2.1.3.2.4zM1.4 8.8l1.2.2h.1c.2 0 .3-.1.3-.3 0-.2-.1-.3-.2-.3l-1.3-.2c-.2 0-.3.1-.3.2-.1.2 0 .4.2.4z"/></svg>