<?xml version="1.0" encoding="utf-8"?>
<!-- Generator: Adobe Illustrator 21.0.0, SVG Export Plug-In . SVG Version: 6.00 Build 0)  -->
<svg version="1.1" id="Layer_1" xmlns="http://www.w3.org/2000/svg" xmlns:xlink="http://www.w3.org/1999/xlink" x="0px" y="0px"
	 viewBox="0 0 20 20" style="enable-background:new 0 0 20 20;" xml:space="preserve">
<style type="text/css">
	.st0{fill:#2D589A;}
</style>
<g>
	<path id="XMLID_755_" class="st0" d="M3.72,6.12c0.81-1.2,1.96-2.17,3.3-2.74C6.75,2.82,6.18,2.51,5.57,2.49
		c-1.2-0.04-2.34,0.82-2.9,1.83c-0.51,0.91-0.62,2.3,0.45,2.86C3.29,6.82,3.49,6.46,3.72,6.12L3.72,6.12z"/>
	<path id="XMLID_757_" class="st0" d="M17.69,5.45c-0.12-1.16-1-2.2-2.03-2.69c-0.91-0.42-2.19-0.42-2.68,0.61
		c0.38,0.16,0.74,0.35,1.08,0.57c1.22,0.78,2.21,1.91,2.81,3.23c0.13-0.07,0.26-0.16,0.36-0.27C17.62,6.53,17.74,5.98,17.69,5.45
		L17.69,5.45z"/>
	<path id="XMLID_759_" class="st0" d="M17.23,6.92C17.12,7.03,18.03,6.12,17.23,6.92z"/>
	<path id="XMLID_1131_" class="st0" d="M14.56,16.33c-0.41,0.31-0.86,0.59-1.33,0.81c0.1,0.17,0.19,0.34,0.29,0.51
		c0.24,0.41,0.45,0.84,0.71,1.23c0.17,0.26,0.47,0.01,0.66-0.1c0.2-0.11,0.4-0.23,0.6-0.34c0.19-0.11,0.11-0.3,0.03-0.44
		C15.21,17.44,14.88,16.88,14.56,16.33L14.56,16.33z"/>
	<path id="XMLID_1134_" class="st0" d="M4.78,17.46c-0.1,0.18-0.21,0.36-0.31,0.54c-0.09,0.15-0.15,0.32,0.04,0.44
		c0.17,0.11,0.35,0.2,0.53,0.3c0.1,0.06,0.2,0.11,0.3,0.17C5.38,18.95,5.45,19,5.53,19c0.18,0.01,0.25-0.17,0.32-0.3
		c0.11-0.2,0.23-0.4,0.35-0.6c0.18-0.32,0.37-0.64,0.55-0.96c-0.47-0.22-0.91-0.49-1.33-0.81C5.21,16.71,4.99,17.08,4.78,17.46
		L4.78,17.46z"/>
	<path id="XMLID_1135_" class="st0" d="M17.13,10.23C17.14,10.26,17.13,10.21,17.13,10.23z"/>
	<path id="XMLID_1139_" class="st0" d="M14.73,4.97c-0.74-0.65-1.61-1.15-2.55-1.45c-0.43-0.14-0.87-0.23-1.32-0.29
		c-0.11-0.01-0.22-0.02-0.33-0.03c-0.05,0-0.11,0.01-0.13-0.03c-0.01-0.02,0-0.08,0-0.11c0-0.07,0-0.15,0-0.22c0-0.31,0-0.62,0-0.94
		c0-0.08-0.02-0.09,0.06-0.09h0.46c0.12,0,0.24,0.01,0.36-0.01c0.24-0.04,0.4-0.29,0.33-0.53C11.51,1,11.24,1,10.99,1
		C10.36,1,9.73,1,9.1,1C8.9,1,8.66,0.97,8.5,1.11C8.32,1.28,8.33,1.58,8.52,1.73c0.12,0.1,0.26,0.09,0.41,0.09h0.49
		c0.03,0,0.13-0.02,0.16,0c0.02,0.01,0,0,0.01,0.03c0.03,0.09,0,0.24,0,0.34v0.53v0.4c0,0.01,0.01,0.06,0,0.07
		C9.56,3.22,9.36,3.21,9.31,3.21c-0.44,0.04-0.88,0.12-1.3,0.25C6.02,4.02,4.34,5.49,3.49,7.37c-0.86,1.9-0.84,4.16,0.07,6.04
		c0.85,1.77,2.45,3.16,4.33,3.73c1.77,0.54,3.73,0.37,5.37-0.48c1.86-0.96,3.24-2.73,3.69-4.77c0.12-0.55,0.18-1.11,0.17-1.67
		C17.12,8.23,16.23,6.3,14.73,4.97L14.73,4.97z M16.15,11.5c-0.24,1.26-0.87,2.42-1.79,3.31c-0.92,0.9-2.11,1.5-3.39,1.7
		c-0.32,0.05-0.65,0.08-0.98,0.08c-1.31,0-2.59-0.42-3.65-1.18c-1.03-0.74-1.83-1.8-2.26-3c-0.42-1.18-0.47-2.47-0.15-3.68
		c0.33-1.23,1.03-2.34,2-3.17C6.9,4.73,8.1,4.22,9.36,4.09c1.29-0.13,2.6,0.14,3.72,0.78c1.17,0.67,2.12,1.72,2.66,2.95
		C16.24,8.97,16.38,10.26,16.15,11.5L16.15,11.5z"/>
	<path id="XMLID_1140_" class="st0" d="M14.73,13.05C14.73,13.05,14.73,13.05,14.73,13.05C14.73,13.05,14.73,13.05,14.73,13.05z"/>
	<path id="XMLID_1144_" class="st0" d="M14.91,7.14c-0.73-1.12-1.84-1.98-3.12-2.39c-1.33-0.43-2.8-0.36-4.08,0.18
		C6.48,5.45,5.45,6.4,4.82,7.58C4.21,8.72,4,10.05,4.23,11.32c0.18,1.05,0.66,2.04,1.36,2.84c0.7,0.8,1.61,1.4,2.61,1.73
		c1.04,0.34,2.18,0.37,3.25,0.1c1.03-0.26,1.98-0.81,2.72-1.57c0.74-0.75,1.28-1.71,1.52-2.74c0.29-1.22,0.18-2.53-0.31-3.69
		C15.25,7.7,15.09,7.41,14.91,7.14L14.91,7.14z M9.85,5.8c0-0.09,0-0.19,0-0.28c0-0.17,0-0.35,0-0.52c0-0.16,0.23-0.19,0.28-0.04
		c0.01,0.05,0.01,0.1,0.01,0.15v0.6c0,0.05,0.01,0.11,0,0.17C10.13,6,9.98,6.08,9.89,5.97C9.84,5.92,9.85,5.86,9.85,5.8L9.85,5.8z
		 M7.26,5.59C7.25,5.6,7.23,5.61,7.26,5.59C7.3,5.57,7.28,5.58,7.26,5.59c0.17-0.1,0.26,0.17,0.32,0.27
		c0.1,0.16,0.19,0.33,0.29,0.49C7.91,6.42,7.94,6.48,7.9,6.55C7.83,6.66,7.7,6.62,7.64,6.53c-0.1-0.14-0.18-0.3-0.26-0.45
		C7.32,5.97,7.09,5.69,7.26,5.59L7.26,5.59z M5.25,7.63C5.28,7.52,5.39,7.5,5.47,7.54c0.16,0.08,0.3,0.18,0.45,0.26
		c0.11,0.06,0.45,0.19,0.35,0.37c0.01-0.02,0.02-0.04,0,0c-0.01,0.02-0.01,0.01,0,0c-0.1,0.17-0.33-0.03-0.43-0.09
		C5.68,7.99,5.51,7.9,5.35,7.8C5.29,7.76,5.23,7.71,5.25,7.63L5.25,7.63z M4.53,10.32c0-0.19,0.28-0.14,0.4-0.14
		c0.19,0,0.39,0,0.58,0c0.07,0,0.15,0.01,0.18,0.09c0.05,0.11-0.05,0.19-0.15,0.2c-0.17,0.01-0.35,0-0.53,0
		C4.89,10.46,4.53,10.52,4.53,10.32L4.53,10.32z M6.22,12.66c-0.12,0.07-0.25,0.14-0.37,0.22c-0.13,0.07-0.26,0.17-0.39,0.23
		c-0.14,0.06-0.29-0.1-0.18-0.22c0.03-0.04,0.09-0.06,0.13-0.08c0.17-0.1,0.34-0.2,0.52-0.3c0.05-0.03,0.1-0.07,0.15-0.09
		C6.24,12.34,6.39,12.57,6.22,12.66L6.22,12.66z M7.9,14.23c-0.07,0.12-0.14,0.25-0.22,0.37C7.61,14.73,7.55,14.88,7.46,15
		c-0.09,0.12-0.3,0.06-0.26-0.1c0.01-0.05,0.05-0.09,0.07-0.13c0.1-0.17,0.2-0.34,0.3-0.52c0.03-0.05,0.05-0.11,0.09-0.15
		C7.76,13.95,7.99,14.07,7.9,14.23L7.9,14.23z M10.14,14.84v0.28v0.52c0,0.16-0.23,0.19-0.28,0.04c-0.01-0.05-0.01-0.1-0.01-0.15
		c0-0.2,0-0.4,0-0.6c0-0.05-0.01-0.11,0-0.17c0.01-0.13,0.16-0.2,0.25-0.09C10.15,14.71,10.14,14.78,10.14,14.84L10.14,14.84z
		 M10.59,11.06c-0.17,0.14-0.38,0.21-0.6,0.21c-0.08,0-0.16-0.01-0.23-0.03c-0.03-0.01-0.09-0.04-0.11-0.03
		c-0.01,0-0.03,0.03-0.04,0.04c-0.07,0.06-0.14,0.13-0.21,0.2c-0.23,0.22-0.45,0.44-0.68,0.66c-0.18,0.17-0.35,0.34-0.53,0.51
		c-0.09,0.08-0.18,0.14-0.3,0.15c-0.25,0.01-0.45-0.21-0.42-0.46c0.02-0.2,0.23-0.35,0.37-0.48c0.23-0.22,0.45-0.44,0.68-0.66
		c0.17-0.17,0.37-0.33,0.53-0.51c0.01-0.01,0.03-0.02,0.04-0.04c0-0.01-0.02-0.06-0.02-0.08c-0.02-0.08-0.03-0.17-0.03-0.25
		c0-0.13,0.03-0.26,0.09-0.38c0.02-0.04,0.05-0.07,0.04-0.11C9.15,9.77,9.08,9.73,9.05,9.7C8.97,9.63,8.9,9.55,8.82,9.48
		C8.6,9.28,8.39,9.07,8.17,8.86c-0.4-0.38-0.8-0.76-1.19-1.14C6.94,7.7,6.91,7.67,6.88,7.64C6.75,7.5,6.85,7.25,7.06,7.29
		C7.18,7.31,7.3,7.47,7.38,7.55c0.43,0.41,0.87,0.83,1.3,1.24c0.19,0.18,0.38,0.37,0.58,0.55c0.05,0.05,0.1,0.11,0.16,0.15
		C9.43,9.5,9.44,9.52,9.46,9.52c0.03,0.01,0.17-0.09,0.2-0.1c0.45-0.17,0.97,0.03,1.19,0.46C11.05,10.28,10.94,10.78,10.59,11.06
		L10.59,11.06z M12.73,15.05C12.74,15.04,12.78,15.02,12.73,15.05C12.72,15.05,12.72,15.05,12.73,15.05
		c-0.17,0.1-0.27-0.19-0.33-0.29c-0.09-0.16-0.19-0.32-0.28-0.49c-0.04-0.07-0.07-0.14,0-0.21c0.08-0.08,0.18-0.04,0.24,0.04
		c0.1,0.14,0.18,0.3,0.26,0.45C12.67,14.67,12.9,14.95,12.73,15.05L12.73,15.05z M12.78,5.78c-0.07,0.12-0.14,0.25-0.22,0.37
		c-0.07,0.13-0.14,0.27-0.23,0.39c-0.09,0.12-0.3,0.06-0.26-0.1c0.01-0.05,0.05-0.09,0.07-0.13c0.1-0.17,0.2-0.34,0.3-0.52
		c0.03-0.05,0.05-0.11,0.09-0.15C12.64,5.49,12.87,5.62,12.78,5.78L12.78,5.78z M13.77,7.98c0.25-0.14,0.5-0.32,0.77-0.44
		c0.12-0.06,0.27,0.07,0.19,0.2c-0.03,0.05-0.09,0.07-0.13,0.1c-0.17,0.1-0.34,0.2-0.51,0.3c-0.05,0.03-0.11,0.07-0.17,0.1
		C13.75,8.29,13.6,8.07,13.77,7.98z M14.73,13.05C14.72,13.07,14.72,13.06,14.73,13.05c-0.1,0.17-0.33-0.02-0.43-0.09
		c-0.16-0.09-0.33-0.19-0.49-0.28c-0.07-0.04-0.13-0.09-0.11-0.18c0.03-0.11,0.14-0.13,0.22-0.08c0.16,0.08,0.3,0.18,0.45,0.26
		C14.49,12.75,14.83,12.87,14.73,13.05C14.74,13.03,14.75,13.01,14.73,13.05L14.73,13.05z M15.32,10.46c-0.29,0-0.59,0.03-0.88,0
		c-0.14-0.01-0.2-0.21-0.06-0.27c0.05-0.02,0.11-0.01,0.16-0.01h0.6c0.06,0,0.12-0.01,0.18,0C15.49,10.19,15.51,10.46,15.32,10.46z"
		/>
	<path id="XMLID_1164_" class="st0" d="M14.91,7.14C15.51,8.05,14.44,6.41,14.91,7.14z"/>
	<path id="XMLID_1167_" class="st0" d="M7.26,5.59C7.26,5.59,7.26,5.59,7.26,5.59z"/>
	<path id="XMLID_1169_" class="st0" d="M10.03,9.77C9.69,9.75,9.4,10.06,9.45,10.4c0.04,0.27,0.28,0.48,0.56,0.47
		c0.29-0.01,0.53-0.26,0.53-0.55C10.54,10.03,10.31,9.79,10.03,9.77L10.03,9.77z"/>
</g>
</svg>
