<?xml version="1.0" encoding="utf-8"?>
<!-- Generator: Adobe Illustrator 21.0.0, SVG Export Plug-In . SVG Version: 6.00 Build 0)  -->
<svg version="1.1" id="Layer_1" xmlns="http://www.w3.org/2000/svg" xmlns:xlink="http://www.w3.org/1999/xlink" x="0px" y="0px"
	 viewBox="0 0 20 20" style="enable-background:new 0 0 20 20;" xml:space="preserve">
<style type="text/css">
	.st0{fill:#2D589A;}
</style>
<path class="st0" d="M6.4,15.4c-1,0-1.8,0.8-1.8,1.8c0,1,0.8,1.8,1.8,1.8c1,0,1.8-0.8,1.8-1.8C8.2,16.2,7.4,15.4,6.4,15.4L6.4,15.4z
	 M1,1v1.8h1.8L6,9.6l-1.3,2.2c-0.1,0.3-0.2,0.6-0.2,0.9c0,1,0.8,1.8,1.8,1.8h10.8v-1.8H6.8c-0.1,0-0.2-0.1-0.2-0.2v-0.1l0.8-1.5H14
	c0.7,0,1.3-0.4,1.5-0.9l3.2-5.8C19,4,19,3.9,19,3.7c0-0.5-0.4-0.9-0.9-0.9H4.8L4,1H1L1,1z M15.4,15.4c-1,0-1.8,0.8-1.8,1.8
	c0,1,0.8,1.8,1.8,1.8c1,0,1.8-0.8,1.8-1.8C17.2,16.2,16.4,15.4,15.4,15.4L15.4,15.4z"/>
</svg>
