<?xml version="1.0" encoding="utf-8"?>
<!-- Generator: Adobe Illustrator 21.0.0, SVG Export Plug-In . SVG Version: 6.00 Build 0)  -->
<svg version="1.1" id="Layer_1" xmlns="http://www.w3.org/2000/svg" xmlns:xlink="http://www.w3.org/1999/xlink" x="0px" y="0px"
	 viewBox="0 0 20 20" style="enable-background:new 0 0 20 20;" xml:space="preserve">
<style type="text/css">
	.st0{fill:#2D589A;}
</style>
<g>
	<path class="st0" d="M17.6,5.6c-0.2,0.2-0.4,0.3-0.5,0.4L13.9,3c0.1-0.2,0.3-0.4,0.4-0.5c0.3-0.3,0.3-0.9,0-1.2
		c-0.3-0.3-0.9-0.3-1.2,0c-1.4,1.4-1.4,3-1.2,4.5c-1.7-0.4-3.7-0.5-5.2,1C6.1,7.5,5.7,8.3,5.6,9.3c0,0.1,0.1,0.3,0.2,0.3
		c0.1,0,0.3-0.1,0.3-0.2c0.1-0.9,0.5-1.6,1.1-2.2c1.4-1.4,3.2-1.2,4.9-0.8c0.1,0.3,0.1,0.5,0.1,0.7c-1.7-0.4-3.4-0.7-4.6,0.6
		c-2.8,2.8,2,7.6-1.2,10.7c-0.1,0.1-0.3,0.1-0.4,0c-0.1-0.1-0.1-0.3,0-0.4c2-2,0.2-4.8,0.1-7.6c0-0.1-0.1-0.3-0.3-0.3
		c-0.1,0-0.3,0.1-0.3,0.3c0,0.6,0.1,1.1,0.2,1.7c-1.5-0.2-3.2-0.2-4.5,1.2c-0.3,0.3-0.3,0.9,0,1.2c0.3,0.3,0.9,0.3,1.2,0
		c0.2-0.2,0.4-0.3,0.5-0.4L6.1,17c-0.1,0.2-0.3,0.4-0.4,0.5c-0.3,0.3-0.3,0.9,0,1.2c0.3,0.3,0.9,0.3,1.2,0c1.4-1.4,1.4-3,1.2-4.5
		c2,0.4,3.8,0.4,5.2-1c1.5-1.5,1.4-3.5,1-5.2c0.5,0.1,1,0.1,1.5,0.1C15.9,8.1,16,8,16,7.8c0-0.1-0.1-0.3-0.3-0.3c-0.5,0-1,0-1.6-0.1
		C14,7.2,14,7,13.9,6.7c1.5,0.3,2.9,0.4,4-0.7c0.1-0.1,0.3-0.1,0.4,0c0.1,0.1,0.1,0.3,0,0.4c-0.5,0.5-1.1,0.8-1.7,1
		c-0.1,0-0.2,0.2-0.2,0.3c0,0.1,0.2,0.2,0.3,0.2c0.7-0.2,1.4-0.6,1.9-1.1C18.9,6.7,19,6.5,19,6.2C19,5.5,18.1,5.1,17.6,5.6z M2.1,14
		c-0.1,0.1-0.3,0.1-0.5,0c-0.1-0.1-0.1-0.3,0-0.4c0.9-0.9,1.9-1.1,2.9-1.1c0.5,0,1,0.1,1.4,0.1C6,12.8,6,13,6.1,13.3
		C4.6,13,3.2,12.9,2.1,14z M3.5,13.7c0.7-0.2,1.6-0.1,2.7,0.1c0.2,1.1,0.3,2,0.1,2.7L3.5,13.7z M7.6,12.4c-0.2-0.9-0.4-1.7-0.4-2.4
		l2.8,2.8C9.3,12.8,8.5,12.6,7.6,12.4z M10.7,12.7L7.3,9.3c0.1-0.4,0.2-0.8,0.5-1.1l4,4C11.5,12.5,11.1,12.6,10.7,12.7z M12.2,11.8
		l-4-4c0.3-0.3,0.7-0.4,1.1-0.5l3.4,3.4C12.6,11.1,12.5,11.5,12.2,11.8z M12.4,7.6c0.2,0.9,0.4,1.7,0.4,2.4L10,7.2
		C10.7,7.2,11.5,7.4,12.4,7.6z M12.8,12.8c-1.4,1.4-3.2,1.2-4.9,0.8c0-0.2-0.1-0.4-0.1-0.7c1.7,0.4,3.4,0.7,4.6-0.6
		c2.8-2.8-1.9-7.6,1.2-10.7c0.1-0.1,0.3-0.1,0.4,0c0.1,0.1,0.1,0.3,0,0.4C11.2,4.9,16,9.7,12.8,12.8z M13.8,6.2
		c-0.2-1.1-0.3-2-0.1-2.7l2.8,2.8C15.8,6.5,14.9,6.4,13.8,6.2z"/>
</g>
</svg>
