<?xml version="1.0" encoding="utf-8"?>
<!-- Generator: Adobe Illustrator 21.0.0, SVG Export Plug-In . SVG Version: 6.00 Build 0)  -->
<svg version="1.1" id="Layer_1" xmlns="http://www.w3.org/2000/svg" xmlns:xlink="http://www.w3.org/1999/xlink" x="0px" y="0px"
	 viewBox="0 0 20 20" style="enable-background:new 0 0 20 20;" xml:space="preserve">
<style type="text/css">
	.st0{fill:#2D589A;}
</style>
<path class="st0" d="M18.4,11.9v-0.2l-2-6.6h-4.4V3.5H1.5v8.4H1v2.2h0.5v0.3h0.3c0.2,1.1,1.2,2,2.4,2c1.2,0,2.2-0.9,2.4-2H12
	c0.2,1.1,1.2,2,2.4,2c1.2,0,2.2-0.9,2.4-2h1.7v-0.3H19v-2.2H18.4L18.4,11.9L18.4,11.9z M4.2,15.3c-0.7,0-1.3-0.6-1.3-1.3
	c0-0.7,0.6-1.3,1.3-1.3c0.7,0,1.3,0.6,1.3,1.3C5.5,14.7,4.9,15.3,4.2,15.3L4.2,15.3z M14.4,15.3c-0.7,0-1.3-0.6-1.3-1.3
	c0-0.7,0.6-1.3,1.3-1.3c0.7,0,1.3,0.6,1.3,1.3C15.7,14.7,15.1,15.3,14.4,15.3L14.4,15.3z M13.2,9.2V6.3h2.4l0.9,2.9H13.2L13.2,9.2z"
	/>
</svg>
