<?xml version="1.0" encoding="utf-8"?>
<!-- Generator: Adobe Illustrator 21.0.0, SVG Export Plug-In . SVG Version: 6.00 Build 0)  -->
<svg version="1.1" id="Layer_1" xmlns="http://www.w3.org/2000/svg" xmlns:xlink="http://www.w3.org/1999/xlink" x="0px" y="0px"
	 viewBox="0 0 20 20" style="enable-background:new 0 0 20 20;" xml:space="preserve">
<style type="text/css">
	.st0{fill:#2D589A;}
</style>
<g>
	<path class="st0" d="M10,1C9.8,1,9.7,1.1,9.7,1.3v1.2c0,0.2,0.1,0.3,0.3,0.3s0.3-0.1,0.3-0.3V1.6c4.6,0.2,8.2,3.9,8.1,8.5
		s-3.7,8.2-8.3,8.3s-8.3-3.5-8.5-8.1h0.9c0.2,0,0.3-0.1,0.3-0.3S2.7,9.7,2.5,9.7H1.3C1.1,9.7,1,9.8,1,10c0,5,4,9,9,9s9-4,9-9
		S15,1,10,1z"/>
	<path class="st0" d="M14,5.5c-0.8-0.1-1.6,0.5-1.6,1.4c-0.1,0.8,0.5,1.6,1.4,1.6c0,0,0.1,0,0.1,0c0.8,0,1.4-0.6,1.5-1.4
		C15.5,6.3,14.8,5.6,14,5.5z M13.8,7.9C13.3,7.9,13,7.4,13,7c0-0.5,0.4-0.9,0.9-0.9c0,0,0.1,0,0.1,0c0.5,0,0.9,0.5,0.8,1
		C14.8,7.6,14.3,7.9,13.8,7.9L13.8,7.9z"/>
	<path class="st0" d="M10.7,6.6c-0.4-0.3-0.9-0.3-1.3,0l-2,2c-0.3,0.3-0.3,0.8,0,1.1c0.3,0.3,0.8,0.3,1.1,0l1.6-1.6l1.2,1.2
		c0.3,0.3,0.8,0.3,1,0c0.1-0.1,0.2-0.3,0.2-0.5c0-0.2-0.1-0.4-0.2-0.5L10.7,6.6z M11.9,8.9c-0.1,0.1-0.1,0.1-0.2,0l-1.4-1.4
		c-0.1-0.1-0.3-0.1-0.4,0L8,9.3C8,9.3,7.9,9.3,7.8,9.3s-0.1-0.2,0-0.2l2-2c0.1-0.1,0.3-0.1,0.4,0l1.6,1.6c0,0,0,0.1,0,0.1
		C11.9,8.8,11.9,8.8,11.9,8.9L11.9,8.9z"/>
	<path class="st0" d="M10.4,15.8L10.4,15.8c0.2,0,0.4-0.1,0.5-0.2l1.6-1.6c0.4-0.4,0.4-0.9,0-1.3l-2-2c-0.3-0.3-0.8-0.3-1.1,0
		c-0.3,0.3-0.3,0.8,0,1.1l1.6,1.6l-1.2,1.2c-0.3,0.3-0.3,0.8,0,1.1C10,15.7,10.2,15.8,10.4,15.8z M10.3,14.9l1.4-1.4
		c0.1-0.1,0.1-0.3,0-0.4l-1.8-1.8c0,0-0.1-0.1,0-0.1c0-0.1,0.1-0.1,0.1-0.1c0.1,0,0.1,0,0.1,0l2,2c0.1,0.1,0.1,0.3,0,0.4l-1.6,1.6
		c0,0-0.1,0-0.1,0c0,0-0.1,0-0.1,0C10.2,15.1,10.2,15,10.3,14.9z"/>
	<path class="st0" d="M15.2,12.1c0.4,0,0.8-0.3,0.8-0.8c0-0.4-0.3-0.8-0.8-0.8h-1.6V9.7c0-0.1-0.1-0.2-0.2-0.3c-0.1-0.1-0.2,0-0.3,0
		l-0.9,0.6c-0.1,0.1-0.1,0.1-0.1,0.2v0.9c0,0.5,0.4,0.9,0.9,0.9H15.2z M12.7,11.2v-0.7l0.3-0.2v0.6c0,0.2,0.1,0.3,0.3,0.3h1.9
		c0.1,0,0.1,0.1,0.1,0.2c0,0.1-0.1,0.1-0.1,0.1H13C12.8,11.5,12.7,11.4,12.7,11.2z"/>
	<path class="st0" d="M9.8,12.5c-0.2-0.2-0.5-0.5-0.6-0.6c0,0,0,0,0-0.1c-0.1-0.1-0.3-0.1-0.4,0l-3.3,3.3c-0.3,0.3-0.3,0.8,0,1.1
		c0.3,0.3,0.8,0.3,1.1,0L9.8,13C9.9,12.8,9.9,12.6,9.8,12.5z M6.1,15.8c-0.1,0.1-0.2,0.1-0.2,0c-0.1-0.1-0.1-0.2,0-0.2l3-3
		C9,12.6,9,12.7,9.1,12.7L6.1,15.8z"/>
	<path class="st0" d="M8.7,2.9C8.7,2.9,8.7,2.9,8.7,2.9C8.9,2.9,9,2.7,9,2.6L8.8,1.4c0-0.2-0.2-0.3-0.3-0.2c-0.2,0-0.3,0.2-0.2,0.3
		l0.2,1.2C8.4,2.8,8.6,2.9,8.7,2.9z"/>
	<path class="st0" d="M7.2,3.1c0,0.1,0.2,0.2,0.3,0.2c0,0,0.1,0,0.1,0C7.7,3.2,7.8,3,7.7,2.8L7.3,1.7C7.2,1.6,7.1,1.5,6.9,1.5
		C6.8,1.6,6.7,1.8,6.7,1.9L7.2,3.1z"/>
	<path class="st0" d="M6,3.7C6,3.7,6.1,3.8,6.3,3.8c0.1,0,0.2-0.1,0.3-0.2c0.1-0.1,0.1-0.2,0-0.3l-0.6-1C5.8,2.2,5.6,2.1,5.5,2.2
		S5.3,2.5,5.4,2.6L6,3.7z"/>
	<path class="st0" d="M4.9,4.4c0.1,0.1,0.3,0.1,0.4,0c0.1-0.1,0.1-0.3,0-0.4L4.6,3.1C4.5,3,4.3,3,4.2,3.1c-0.1,0.1-0.1,0.3,0,0.4
		L4.9,4.4z"/>
	<path class="st0" d="M4.1,5.4c0.1,0.1,0.3,0.1,0.4,0c0.1-0.1,0.1-0.3,0-0.4L3.5,4.2c-0.1-0.1-0.3-0.1-0.4,0C3,4.3,3,4.5,3.1,4.6
		L4.1,5.4z"/>
	<path class="st0" d="M2.3,5.9l1,0.6c0.1,0.1,0.2,0.1,0.3,0c0.1-0.1,0.2-0.2,0.2-0.3C3.8,6.1,3.7,6,3.7,6l-1-0.6
		c-0.1-0.1-0.3,0-0.4,0.1S2.2,5.8,2.3,5.9z"/>
	<path class="st0" d="M1.7,7.3l1.1,0.4c0,0,0.1,0,0.1,0c0.1,0,0.3-0.1,0.3-0.2c0-0.1-0.1-0.3-0.2-0.3L1.9,6.7
		c-0.2-0.1-0.3,0-0.4,0.2C1.5,7.1,1.6,7.2,1.7,7.3z"/>
	<path class="st0" d="M1.4,8.8L2.6,9c0,0,0,0,0.1,0c0.2,0,0.3-0.1,0.3-0.3c0-0.2-0.1-0.3-0.2-0.3L1.5,8.2c-0.2,0-0.3,0.1-0.3,0.2
		C1.1,8.6,1.2,8.8,1.4,8.8L1.4,8.8z"/>
</g>
</svg>
